<mxfile host="app.diagrams.net" agent="Mozilla/5.0 (Windows NT 10.0; Win64; x64) AppleWebKit/537.36 (KHTML, like Gecko) Chrome/131.0.0.0 Safari/537.36" version="25.0.3">
  <diagram name="Page-1" id="b9E7jpier7gAhjvjJ9WV">
    <mxGraphModel dx="-1726" dy="1838" grid="1" gridSize="10" guides="1" tooltips="1" connect="1" arrows="1" fold="1" page="1" pageScale="1" pageWidth="850" pageHeight="1100" math="0" shadow="0">
      <root>
        <mxCell id="0" />
        <mxCell id="1" parent="0" />
        <mxCell id="MZrcCQdvljvRuOeF0CK3-1" value="" style="group" vertex="1" connectable="0" parent="1">
          <mxGeometry x="3430" y="-1070" width="1376" height="1540" as="geometry" />
        </mxCell>
        <mxCell id="MZrcCQdvljvRuOeF0CK3-2" style="edgeStyle=orthogonalEdgeStyle;rounded=0;orthogonalLoop=1;jettySize=auto;html=1;exitX=0.5;exitY=0;exitDx=0;exitDy=0;entryX=0.5;entryY=1;entryDx=0;entryDy=0;" edge="1" parent="MZrcCQdvljvRuOeF0CK3-1" source="MZrcCQdvljvRuOeF0CK3-3" target="MZrcCQdvljvRuOeF0CK3-19">
          <mxGeometry relative="1" as="geometry" />
        </mxCell>
        <mxCell id="MZrcCQdvljvRuOeF0CK3-3" value="save current rr to grr[guess]" style="rounded=0;whiteSpace=wrap;html=1;container=0;" vertex="1" parent="MZrcCQdvljvRuOeF0CK3-1">
          <mxGeometry x="305" y="100" width="120" height="60" as="geometry" />
        </mxCell>
        <mxCell id="MZrcCQdvljvRuOeF0CK3-4" style="edgeStyle=orthogonalEdgeStyle;rounded=0;orthogonalLoop=1;jettySize=auto;html=1;exitX=0;exitY=0.5;exitDx=0;exitDy=0;entryX=0;entryY=0.5;entryDx=0;entryDy=0;" edge="1" parent="MZrcCQdvljvRuOeF0CK3-1" source="MZrcCQdvljvRuOeF0CK3-5" target="MZrcCQdvljvRuOeF0CK3-7">
          <mxGeometry relative="1" as="geometry" />
        </mxCell>
        <mxCell id="MZrcCQdvljvRuOeF0CK3-5" value="Start AI" style="ellipse;whiteSpace=wrap;html=1;" vertex="1" parent="MZrcCQdvljvRuOeF0CK3-1">
          <mxGeometry x="170" y="243" width="120" height="40" as="geometry" />
        </mxCell>
        <mxCell id="MZrcCQdvljvRuOeF0CK3-6" style="edgeStyle=orthogonalEdgeStyle;rounded=0;orthogonalLoop=1;jettySize=auto;html=1;exitX=0.5;exitY=1;exitDx=0;exitDy=0;entryX=0.5;entryY=0;entryDx=0;entryDy=0;" edge="1" parent="MZrcCQdvljvRuOeF0CK3-1" source="MZrcCQdvljvRuOeF0CK3-7" target="MZrcCQdvljvRuOeF0CK3-33">
          <mxGeometry relative="1" as="geometry" />
        </mxCell>
        <mxCell id="MZrcCQdvljvRuOeF0CK3-7" value="Declare static variables" style="rounded=0;whiteSpace=wrap;html=1;container=0;" vertex="1" parent="MZrcCQdvljvRuOeF0CK3-1">
          <mxGeometry x="170" y="10" width="120" height="60" as="geometry" />
        </mxCell>
        <mxCell id="MZrcCQdvljvRuOeF0CK3-8" style="edgeStyle=orthogonalEdgeStyle;rounded=0;orthogonalLoop=1;jettySize=auto;html=1;exitX=1;exitY=0.5;exitDx=0;exitDy=0;entryX=0;entryY=0.5;entryDx=0;entryDy=0;" edge="1" parent="MZrcCQdvljvRuOeF0CK3-1" source="MZrcCQdvljvRuOeF0CK3-10" target="MZrcCQdvljvRuOeF0CK3-28">
          <mxGeometry relative="1" as="geometry" />
        </mxCell>
        <mxCell id="MZrcCQdvljvRuOeF0CK3-9" style="edgeStyle=orthogonalEdgeStyle;rounded=0;orthogonalLoop=1;jettySize=auto;html=1;exitX=0.5;exitY=1;exitDx=0;exitDy=0;entryX=1;entryY=0.5;entryDx=0;entryDy=0;" edge="1" parent="MZrcCQdvljvRuOeF0CK3-1" source="MZrcCQdvljvRuOeF0CK3-10" target="MZrcCQdvljvRuOeF0CK3-14">
          <mxGeometry relative="1" as="geometry" />
        </mxCell>
        <mxCell id="MZrcCQdvljvRuOeF0CK3-10" value="rr == 4 ?" style="rhombus;whiteSpace=wrap;html=1;" vertex="1" parent="MZrcCQdvljvRuOeF0CK3-1">
          <mxGeometry x="440" width="150" height="80" as="geometry" />
        </mxCell>
        <mxCell id="MZrcCQdvljvRuOeF0CK3-11" style="edgeStyle=orthogonalEdgeStyle;rounded=0;orthogonalLoop=1;jettySize=auto;html=1;exitX=1;exitY=0.5;exitDx=0;exitDy=0;entryX=0;entryY=0.5;entryDx=0;entryDy=0;" edge="1" parent="MZrcCQdvljvRuOeF0CK3-1" source="MZrcCQdvljvRuOeF0CK3-12" target="MZrcCQdvljvRuOeF0CK3-17">
          <mxGeometry relative="1" as="geometry" />
        </mxCell>
        <mxCell id="MZrcCQdvljvRuOeF0CK3-12" value="i++" style="rounded=0;whiteSpace=wrap;html=1;container=0;" vertex="1" parent="MZrcCQdvljvRuOeF0CK3-1">
          <mxGeometry x="170" y="323" width="120" height="60" as="geometry" />
        </mxCell>
        <mxCell id="MZrcCQdvljvRuOeF0CK3-13" style="edgeStyle=orthogonalEdgeStyle;rounded=0;orthogonalLoop=1;jettySize=auto;html=1;exitX=0.5;exitY=1;exitDx=0;exitDy=0;entryX=0.5;entryY=0;entryDx=0;entryDy=0;" edge="1" parent="MZrcCQdvljvRuOeF0CK3-1" source="MZrcCQdvljvRuOeF0CK3-14" target="MZrcCQdvljvRuOeF0CK3-17">
          <mxGeometry relative="1" as="geometry" />
        </mxCell>
        <mxCell id="MZrcCQdvljvRuOeF0CK3-14" value="i = 0" style="rounded=0;whiteSpace=wrap;html=1;container=0;" vertex="1" parent="MZrcCQdvljvRuOeF0CK3-1">
          <mxGeometry x="362.5" y="233" width="120" height="60" as="geometry" />
        </mxCell>
        <mxCell id="MZrcCQdvljvRuOeF0CK3-15" style="edgeStyle=orthogonalEdgeStyle;rounded=0;orthogonalLoop=1;jettySize=auto;html=1;exitX=0.5;exitY=1;exitDx=0;exitDy=0;entryX=0.5;entryY=0;entryDx=0;entryDy=0;" edge="1" parent="MZrcCQdvljvRuOeF0CK3-1" source="MZrcCQdvljvRuOeF0CK3-17" target="MZrcCQdvljvRuOeF0CK3-21">
          <mxGeometry relative="1" as="geometry" />
        </mxCell>
        <mxCell id="MZrcCQdvljvRuOeF0CK3-16" style="edgeStyle=orthogonalEdgeStyle;rounded=0;orthogonalLoop=1;jettySize=auto;html=1;exitX=1;exitY=0.5;exitDx=0;exitDy=0;entryX=1;entryY=0.5;entryDx=0;entryDy=0;" edge="1" parent="MZrcCQdvljvRuOeF0CK3-1" source="MZrcCQdvljvRuOeF0CK3-17" target="MZrcCQdvljvRuOeF0CK3-23">
          <mxGeometry relative="1" as="geometry">
            <Array as="points">
              <mxPoint x="510" y="353" />
              <mxPoint x="510" y="533" />
            </Array>
          </mxGeometry>
        </mxCell>
        <mxCell id="MZrcCQdvljvRuOeF0CK3-17" value="i &amp;lt; 4" style="rhombus;whiteSpace=wrap;html=1;" vertex="1" parent="MZrcCQdvljvRuOeF0CK3-1">
          <mxGeometry x="347.5" y="313" width="150" height="80" as="geometry" />
        </mxCell>
        <mxCell id="MZrcCQdvljvRuOeF0CK3-18" style="edgeStyle=orthogonalEdgeStyle;rounded=0;orthogonalLoop=1;jettySize=auto;html=1;exitX=1;exitY=0.5;exitDx=0;exitDy=0;entryX=0;entryY=0.5;entryDx=0;entryDy=0;" edge="1" parent="MZrcCQdvljvRuOeF0CK3-1" source="MZrcCQdvljvRuOeF0CK3-19" target="MZrcCQdvljvRuOeF0CK3-10">
          <mxGeometry relative="1" as="geometry" />
        </mxCell>
        <mxCell id="MZrcCQdvljvRuOeF0CK3-19" value="save current rw to grw[guess]" style="rounded=0;whiteSpace=wrap;html=1;container=0;" vertex="1" parent="MZrcCQdvljvRuOeF0CK3-1">
          <mxGeometry x="305" y="10" width="120" height="60" as="geometry" />
        </mxCell>
        <mxCell id="MZrcCQdvljvRuOeF0CK3-20" style="edgeStyle=orthogonalEdgeStyle;rounded=0;orthogonalLoop=1;jettySize=auto;html=1;exitX=0;exitY=0.5;exitDx=0;exitDy=0;entryX=0.5;entryY=1;entryDx=0;entryDy=0;" edge="1" parent="MZrcCQdvljvRuOeF0CK3-1" source="MZrcCQdvljvRuOeF0CK3-21" target="MZrcCQdvljvRuOeF0CK3-12">
          <mxGeometry relative="1" as="geometry" />
        </mxCell>
        <mxCell id="MZrcCQdvljvRuOeF0CK3-21" value="sGuess[i] = placed[i]" style="rounded=0;whiteSpace=wrap;html=1;container=0;" vertex="1" parent="MZrcCQdvljvRuOeF0CK3-1">
          <mxGeometry x="362.5" y="413" width="120" height="60" as="geometry" />
        </mxCell>
        <mxCell id="MZrcCQdvljvRuOeF0CK3-22" style="edgeStyle=orthogonalEdgeStyle;rounded=0;orthogonalLoop=1;jettySize=auto;html=1;exitX=0.5;exitY=1;exitDx=0;exitDy=0;entryX=0.5;entryY=0;entryDx=0;entryDy=0;" edge="1" parent="MZrcCQdvljvRuOeF0CK3-1" source="MZrcCQdvljvRuOeF0CK3-23" target="MZrcCQdvljvRuOeF0CK3-25">
          <mxGeometry relative="1" as="geometry" />
        </mxCell>
        <mxCell id="MZrcCQdvljvRuOeF0CK3-23" value="print" style="shape=process;whiteSpace=wrap;html=1;backgroundOutline=1;" vertex="1" parent="MZrcCQdvljvRuOeF0CK3-1">
          <mxGeometry x="360" y="503" width="120" height="60" as="geometry" />
        </mxCell>
        <mxCell id="MZrcCQdvljvRuOeF0CK3-24" style="edgeStyle=orthogonalEdgeStyle;rounded=0;orthogonalLoop=1;jettySize=auto;html=1;exitX=0;exitY=0.5;exitDx=0;exitDy=0;entryX=1;entryY=0.5;entryDx=0;entryDy=0;" edge="1" parent="MZrcCQdvljvRuOeF0CK3-1" source="MZrcCQdvljvRuOeF0CK3-25" target="MZrcCQdvljvRuOeF0CK3-145">
          <mxGeometry relative="1" as="geometry" />
        </mxCell>
        <mxCell id="MZrcCQdvljvRuOeF0CK3-25" value="return sGuess" style="rounded=0;whiteSpace=wrap;html=1;container=0;" vertex="1" parent="MZrcCQdvljvRuOeF0CK3-1">
          <mxGeometry x="360" y="600" width="120" height="60" as="geometry" />
        </mxCell>
        <mxCell id="MZrcCQdvljvRuOeF0CK3-26" style="edgeStyle=orthogonalEdgeStyle;rounded=0;orthogonalLoop=1;jettySize=auto;html=1;exitX=1;exitY=0.5;exitDx=0;exitDy=0;entryX=0;entryY=0.5;entryDx=0;entryDy=0;" edge="1" parent="MZrcCQdvljvRuOeF0CK3-1" source="MZrcCQdvljvRuOeF0CK3-28" target="MZrcCQdvljvRuOeF0CK3-31">
          <mxGeometry relative="1" as="geometry" />
        </mxCell>
        <mxCell id="MZrcCQdvljvRuOeF0CK3-27" style="edgeStyle=orthogonalEdgeStyle;rounded=0;orthogonalLoop=1;jettySize=auto;html=1;exitX=0.5;exitY=1;exitDx=0;exitDy=0;entryX=0.5;entryY=0;entryDx=0;entryDy=0;" edge="1" parent="MZrcCQdvljvRuOeF0CK3-1" source="MZrcCQdvljvRuOeF0CK3-28" target="MZrcCQdvljvRuOeF0CK3-47">
          <mxGeometry relative="1" as="geometry">
            <mxPoint x="700" y="670" as="targetPoint" />
            <Array as="points">
              <mxPoint x="685" y="270" />
              <mxPoint x="600" y="270" />
              <mxPoint x="600" y="670" />
              <mxPoint x="695" y="670" />
            </Array>
          </mxGeometry>
        </mxCell>
        <mxCell id="MZrcCQdvljvRuOeF0CK3-28" value="&lt;span style=&quot;background-color: initial;&quot;&gt;digits.length() &amp;lt; 4&lt;/span&gt;" style="rhombus;whiteSpace=wrap;html=1;" vertex="1" parent="MZrcCQdvljvRuOeF0CK3-1">
          <mxGeometry x="610" width="150" height="80" as="geometry" />
        </mxCell>
        <mxCell id="MZrcCQdvljvRuOeF0CK3-29" style="edgeStyle=orthogonalEdgeStyle;rounded=0;orthogonalLoop=1;jettySize=auto;html=1;exitX=1;exitY=0.5;exitDx=0;exitDy=0;entryX=0;entryY=0.5;entryDx=0;entryDy=0;" edge="1" parent="MZrcCQdvljvRuOeF0CK3-1" source="MZrcCQdvljvRuOeF0CK3-31" target="MZrcCQdvljvRuOeF0CK3-35">
          <mxGeometry relative="1" as="geometry" />
        </mxCell>
        <mxCell id="MZrcCQdvljvRuOeF0CK3-30" style="edgeStyle=orthogonalEdgeStyle;rounded=0;orthogonalLoop=1;jettySize=auto;html=1;exitX=0.5;exitY=1;exitDx=0;exitDy=0;" edge="1" parent="MZrcCQdvljvRuOeF0CK3-1" source="MZrcCQdvljvRuOeF0CK3-31">
          <mxGeometry relative="1" as="geometry">
            <mxPoint x="855" y="270" as="targetPoint" />
          </mxGeometry>
        </mxCell>
        <mxCell id="MZrcCQdvljvRuOeF0CK3-31" value="&lt;span style=&quot;background-color: initial;&quot;&gt;num &amp;gt; 0&lt;/span&gt;" style="rhombus;whiteSpace=wrap;html=1;" vertex="1" parent="MZrcCQdvljvRuOeF0CK3-1">
          <mxGeometry x="780" width="150" height="80" as="geometry" />
        </mxCell>
        <mxCell id="MZrcCQdvljvRuOeF0CK3-32" style="edgeStyle=orthogonalEdgeStyle;rounded=0;orthogonalLoop=1;jettySize=auto;html=1;exitX=1;exitY=0.5;exitDx=0;exitDy=0;entryX=0;entryY=0.5;entryDx=0;entryDy=0;" edge="1" parent="MZrcCQdvljvRuOeF0CK3-1" source="MZrcCQdvljvRuOeF0CK3-33" target="MZrcCQdvljvRuOeF0CK3-3">
          <mxGeometry relative="1" as="geometry" />
        </mxCell>
        <mxCell id="MZrcCQdvljvRuOeF0CK3-33" value="num = rr + rw - total" style="rounded=0;whiteSpace=wrap;html=1;container=0;" vertex="1" parent="MZrcCQdvljvRuOeF0CK3-1">
          <mxGeometry x="170" y="100" width="120" height="60" as="geometry" />
        </mxCell>
        <mxCell id="MZrcCQdvljvRuOeF0CK3-34" style="edgeStyle=orthogonalEdgeStyle;rounded=0;orthogonalLoop=1;jettySize=auto;html=1;exitX=0.5;exitY=1;exitDx=0;exitDy=0;entryX=0.5;entryY=0;entryDx=0;entryDy=0;" edge="1" parent="MZrcCQdvljvRuOeF0CK3-1" source="MZrcCQdvljvRuOeF0CK3-35" target="MZrcCQdvljvRuOeF0CK3-37">
          <mxGeometry relative="1" as="geometry" />
        </mxCell>
        <mxCell id="MZrcCQdvljvRuOeF0CK3-35" value="char digit =&lt;div&gt;(pos-1) + &#39;0&#39;&lt;/div&gt;" style="rounded=0;whiteSpace=wrap;html=1;container=0;" vertex="1" parent="MZrcCQdvljvRuOeF0CK3-1">
          <mxGeometry x="1106" y="10" width="120" height="60" as="geometry" />
        </mxCell>
        <mxCell id="MZrcCQdvljvRuOeF0CK3-36" style="edgeStyle=orthogonalEdgeStyle;rounded=0;orthogonalLoop=1;jettySize=auto;html=1;exitX=0.5;exitY=1;exitDx=0;exitDy=0;entryX=0.5;entryY=0;entryDx=0;entryDy=0;" edge="1" parent="MZrcCQdvljvRuOeF0CK3-1" source="MZrcCQdvljvRuOeF0CK3-37" target="MZrcCQdvljvRuOeF0CK3-40">
          <mxGeometry relative="1" as="geometry" />
        </mxCell>
        <mxCell id="MZrcCQdvljvRuOeF0CK3-37" value="i = 0" style="rounded=0;whiteSpace=wrap;html=1;container=0;" vertex="1" parent="MZrcCQdvljvRuOeF0CK3-1">
          <mxGeometry x="1106" y="100" width="120" height="60" as="geometry" />
        </mxCell>
        <mxCell id="MZrcCQdvljvRuOeF0CK3-38" style="edgeStyle=orthogonalEdgeStyle;rounded=0;orthogonalLoop=1;jettySize=auto;html=1;exitX=0;exitY=0.5;exitDx=0;exitDy=0;entryX=1;entryY=0.5;entryDx=0;entryDy=0;" edge="1" parent="MZrcCQdvljvRuOeF0CK3-1" source="MZrcCQdvljvRuOeF0CK3-40" target="MZrcCQdvljvRuOeF0CK3-53">
          <mxGeometry relative="1" as="geometry" />
        </mxCell>
        <mxCell id="MZrcCQdvljvRuOeF0CK3-39" style="edgeStyle=orthogonalEdgeStyle;rounded=0;orthogonalLoop=1;jettySize=auto;html=1;exitX=0.5;exitY=1;exitDx=0;exitDy=0;entryX=0.5;entryY=0;entryDx=0;entryDy=0;" edge="1" parent="MZrcCQdvljvRuOeF0CK3-1" source="MZrcCQdvljvRuOeF0CK3-40" target="MZrcCQdvljvRuOeF0CK3-42">
          <mxGeometry relative="1" as="geometry" />
        </mxCell>
        <mxCell id="MZrcCQdvljvRuOeF0CK3-40" value="i &amp;lt; 4" style="rhombus;whiteSpace=wrap;html=1;" vertex="1" parent="MZrcCQdvljvRuOeF0CK3-1">
          <mxGeometry x="1091" y="180" width="150" height="80" as="geometry" />
        </mxCell>
        <mxCell id="MZrcCQdvljvRuOeF0CK3-41" style="edgeStyle=orthogonalEdgeStyle;rounded=0;orthogonalLoop=1;jettySize=auto;html=1;exitX=1;exitY=0.5;exitDx=0;exitDy=0;entryX=0.5;entryY=1;entryDx=0;entryDy=0;" edge="1" parent="MZrcCQdvljvRuOeF0CK3-1" source="MZrcCQdvljvRuOeF0CK3-42" target="MZrcCQdvljvRuOeF0CK3-44">
          <mxGeometry relative="1" as="geometry" />
        </mxCell>
        <mxCell id="MZrcCQdvljvRuOeF0CK3-42" value="digits += digit" style="rounded=0;whiteSpace=wrap;html=1;container=0;" vertex="1" parent="MZrcCQdvljvRuOeF0CK3-1">
          <mxGeometry x="1106" y="280" width="120" height="60" as="geometry" />
        </mxCell>
        <mxCell id="MZrcCQdvljvRuOeF0CK3-43" style="edgeStyle=orthogonalEdgeStyle;rounded=0;orthogonalLoop=1;jettySize=auto;html=1;exitX=0;exitY=0.5;exitDx=0;exitDy=0;entryX=1;entryY=0.5;entryDx=0;entryDy=0;" edge="1" parent="MZrcCQdvljvRuOeF0CK3-1" source="MZrcCQdvljvRuOeF0CK3-44" target="MZrcCQdvljvRuOeF0CK3-40">
          <mxGeometry relative="1" as="geometry" />
        </mxCell>
        <mxCell id="MZrcCQdvljvRuOeF0CK3-44" value="i++" style="rounded=0;whiteSpace=wrap;html=1;container=0;" vertex="1" parent="MZrcCQdvljvRuOeF0CK3-1">
          <mxGeometry x="1256" y="190" width="120" height="60" as="geometry" />
        </mxCell>
        <mxCell id="MZrcCQdvljvRuOeF0CK3-45" style="edgeStyle=orthogonalEdgeStyle;rounded=0;orthogonalLoop=1;jettySize=auto;html=1;exitX=0.5;exitY=1;exitDx=0;exitDy=0;entryX=0.5;entryY=0;entryDx=0;entryDy=0;" edge="1" parent="MZrcCQdvljvRuOeF0CK3-1" source="MZrcCQdvljvRuOeF0CK3-47" target="MZrcCQdvljvRuOeF0CK3-84">
          <mxGeometry relative="1" as="geometry" />
        </mxCell>
        <mxCell id="MZrcCQdvljvRuOeF0CK3-46" style="edgeStyle=orthogonalEdgeStyle;rounded=0;orthogonalLoop=1;jettySize=auto;html=1;exitX=0;exitY=0.5;exitDx=0;exitDy=0;entryX=1;entryY=0.5;entryDx=0;entryDy=0;" edge="1" parent="MZrcCQdvljvRuOeF0CK3-1" source="MZrcCQdvljvRuOeF0CK3-47" target="MZrcCQdvljvRuOeF0CK3-136">
          <mxGeometry relative="1" as="geometry" />
        </mxCell>
        <mxCell id="MZrcCQdvljvRuOeF0CK3-47" value="&lt;span style=&quot;background-color: initial;&quot;&gt;digits.length() == 4&lt;/span&gt;" style="rhombus;whiteSpace=wrap;html=1;" vertex="1" parent="MZrcCQdvljvRuOeF0CK3-1">
          <mxGeometry x="620" y="720" width="150" height="80" as="geometry" />
        </mxCell>
        <mxCell id="MZrcCQdvljvRuOeF0CK3-48" value="Yes" style="text;html=1;strokeColor=none;fillColor=none;align=center;verticalAlign=middle;whiteSpace=wrap;rounded=0;container=0;" vertex="1" parent="MZrcCQdvljvRuOeF0CK3-1">
          <mxGeometry x="372.5" y="383" width="60" height="30" as="geometry" />
        </mxCell>
        <mxCell id="MZrcCQdvljvRuOeF0CK3-49" value="Yes" style="text;html=1;strokeColor=none;fillColor=none;align=center;verticalAlign=middle;whiteSpace=wrap;rounded=0;container=0;" vertex="1" parent="MZrcCQdvljvRuOeF0CK3-1">
          <mxGeometry x="470" y="80" width="60" height="30" as="geometry" />
        </mxCell>
        <mxCell id="MZrcCQdvljvRuOeF0CK3-50" value="Yes" style="text;html=1;strokeColor=none;fillColor=none;align=center;verticalAlign=middle;whiteSpace=wrap;rounded=0;container=0;" vertex="1" parent="MZrcCQdvljvRuOeF0CK3-1">
          <mxGeometry x="735" width="60" height="30" as="geometry" />
        </mxCell>
        <mxCell id="MZrcCQdvljvRuOeF0CK3-51" value="Yes" style="text;html=1;strokeColor=none;fillColor=none;align=center;verticalAlign=middle;whiteSpace=wrap;rounded=0;container=0;" vertex="1" parent="MZrcCQdvljvRuOeF0CK3-1">
          <mxGeometry x="1111" y="250" width="60" height="30" as="geometry" />
        </mxCell>
        <mxCell id="MZrcCQdvljvRuOeF0CK3-52" style="edgeStyle=orthogonalEdgeStyle;rounded=0;orthogonalLoop=1;jettySize=auto;html=1;exitX=0;exitY=0.5;exitDx=0;exitDy=0;entryX=0.5;entryY=0;entryDx=0;entryDy=0;" edge="1" parent="MZrcCQdvljvRuOeF0CK3-1" source="MZrcCQdvljvRuOeF0CK3-53" target="MZrcCQdvljvRuOeF0CK3-56">
          <mxGeometry relative="1" as="geometry" />
        </mxCell>
        <mxCell id="MZrcCQdvljvRuOeF0CK3-53" value="total += num" style="rounded=0;whiteSpace=wrap;html=1;container=0;" vertex="1" parent="MZrcCQdvljvRuOeF0CK3-1">
          <mxGeometry x="951" y="190" width="120" height="60" as="geometry" />
        </mxCell>
        <mxCell id="MZrcCQdvljvRuOeF0CK3-54" style="edgeStyle=orthogonalEdgeStyle;rounded=0;orthogonalLoop=1;jettySize=auto;html=1;exitX=0.5;exitY=1;exitDx=0;exitDy=0;entryX=0.5;entryY=0;entryDx=0;entryDy=0;" edge="1" parent="MZrcCQdvljvRuOeF0CK3-1" source="MZrcCQdvljvRuOeF0CK3-56" target="MZrcCQdvljvRuOeF0CK3-58">
          <mxGeometry relative="1" as="geometry" />
        </mxCell>
        <mxCell id="MZrcCQdvljvRuOeF0CK3-55" style="edgeStyle=orthogonalEdgeStyle;rounded=0;orthogonalLoop=1;jettySize=auto;html=1;exitX=0;exitY=0.5;exitDx=0;exitDy=0;entryX=0.5;entryY=0;entryDx=0;entryDy=0;" edge="1" parent="MZrcCQdvljvRuOeF0CK3-1" source="MZrcCQdvljvRuOeF0CK3-56" target="MZrcCQdvljvRuOeF0CK3-79">
          <mxGeometry relative="1" as="geometry">
            <mxPoint x="610" y="680" as="targetPoint" />
          </mxGeometry>
        </mxCell>
        <mxCell id="MZrcCQdvljvRuOeF0CK3-56" value="&lt;span style=&quot;background-color: initial;&quot;&gt;digits.length() &amp;lt; 4&lt;/span&gt;" style="rhombus;whiteSpace=wrap;html=1;" vertex="1" parent="MZrcCQdvljvRuOeF0CK3-1">
          <mxGeometry x="780" y="270" width="150" height="80" as="geometry" />
        </mxCell>
        <mxCell id="MZrcCQdvljvRuOeF0CK3-57" style="edgeStyle=orthogonalEdgeStyle;rounded=0;orthogonalLoop=1;jettySize=auto;html=1;exitX=1;exitY=0.5;exitDx=0;exitDy=0;entryX=0.5;entryY=0;entryDx=0;entryDy=0;" edge="1" parent="MZrcCQdvljvRuOeF0CK3-1" source="MZrcCQdvljvRuOeF0CK3-58" target="MZrcCQdvljvRuOeF0CK3-61">
          <mxGeometry relative="1" as="geometry" />
        </mxCell>
        <mxCell id="MZrcCQdvljvRuOeF0CK3-58" value="i = total - num" style="rounded=0;whiteSpace=wrap;html=1;container=0;" vertex="1" parent="MZrcCQdvljvRuOeF0CK3-1">
          <mxGeometry x="795" y="370" width="120" height="60" as="geometry" />
        </mxCell>
        <mxCell id="MZrcCQdvljvRuOeF0CK3-59" style="edgeStyle=orthogonalEdgeStyle;rounded=0;orthogonalLoop=1;jettySize=auto;html=1;exitX=0.5;exitY=1;exitDx=0;exitDy=0;" edge="1" parent="MZrcCQdvljvRuOeF0CK3-1" source="MZrcCQdvljvRuOeF0CK3-61" target="MZrcCQdvljvRuOeF0CK3-65">
          <mxGeometry relative="1" as="geometry" />
        </mxCell>
        <mxCell id="MZrcCQdvljvRuOeF0CK3-60" style="edgeStyle=orthogonalEdgeStyle;rounded=0;orthogonalLoop=1;jettySize=auto;html=1;exitX=0;exitY=0.5;exitDx=0;exitDy=0;entryX=0;entryY=0.5;entryDx=0;entryDy=0;" edge="1" parent="MZrcCQdvljvRuOeF0CK3-1" source="MZrcCQdvljvRuOeF0CK3-61" target="MZrcCQdvljvRuOeF0CK3-67">
          <mxGeometry relative="1" as="geometry">
            <mxPoint x="905" y="650" as="targetPoint" />
            <Array as="points">
              <mxPoint x="910" y="490" />
              <mxPoint x="910" y="670" />
            </Array>
          </mxGeometry>
        </mxCell>
        <mxCell id="MZrcCQdvljvRuOeF0CK3-61" value="i &amp;lt; digits.length()" style="rhombus;whiteSpace=wrap;html=1;" vertex="1" parent="MZrcCQdvljvRuOeF0CK3-1">
          <mxGeometry x="936" y="450" width="150" height="80" as="geometry" />
        </mxCell>
        <mxCell id="MZrcCQdvljvRuOeF0CK3-62" style="edgeStyle=orthogonalEdgeStyle;rounded=0;orthogonalLoop=1;jettySize=auto;html=1;exitX=0;exitY=0.5;exitDx=0;exitDy=0;entryX=1;entryY=0.5;entryDx=0;entryDy=0;" edge="1" parent="MZrcCQdvljvRuOeF0CK3-1" source="MZrcCQdvljvRuOeF0CK3-63" target="MZrcCQdvljvRuOeF0CK3-61">
          <mxGeometry relative="1" as="geometry" />
        </mxCell>
        <mxCell id="MZrcCQdvljvRuOeF0CK3-63" value="i++" style="rounded=0;whiteSpace=wrap;html=1;container=0;" vertex="1" parent="MZrcCQdvljvRuOeF0CK3-1">
          <mxGeometry x="1106" y="460" width="120" height="60" as="geometry" />
        </mxCell>
        <mxCell id="MZrcCQdvljvRuOeF0CK3-64" style="edgeStyle=orthogonalEdgeStyle;rounded=0;orthogonalLoop=1;jettySize=auto;html=1;exitX=1;exitY=0.5;exitDx=0;exitDy=0;entryX=0.5;entryY=1;entryDx=0;entryDy=0;" edge="1" parent="MZrcCQdvljvRuOeF0CK3-1" source="MZrcCQdvljvRuOeF0CK3-65" target="MZrcCQdvljvRuOeF0CK3-63">
          <mxGeometry relative="1" as="geometry" />
        </mxCell>
        <mxCell id="MZrcCQdvljvRuOeF0CK3-65" value="sGuess[i] = digits[i]" style="rounded=0;whiteSpace=wrap;html=1;container=0;" vertex="1" parent="MZrcCQdvljvRuOeF0CK3-1">
          <mxGeometry x="951" y="550" width="120" height="60" as="geometry" />
        </mxCell>
        <mxCell id="MZrcCQdvljvRuOeF0CK3-66" style="edgeStyle=orthogonalEdgeStyle;rounded=0;orthogonalLoop=1;jettySize=auto;html=1;exitX=0.5;exitY=1;exitDx=0;exitDy=0;entryX=0.5;entryY=0;entryDx=0;entryDy=0;" edge="1" parent="MZrcCQdvljvRuOeF0CK3-1" source="MZrcCQdvljvRuOeF0CK3-67" target="MZrcCQdvljvRuOeF0CK3-70">
          <mxGeometry relative="1" as="geometry" />
        </mxCell>
        <mxCell id="MZrcCQdvljvRuOeF0CK3-67" value="i = digits.length()" style="rounded=0;whiteSpace=wrap;html=1;container=0;" vertex="1" parent="MZrcCQdvljvRuOeF0CK3-1">
          <mxGeometry x="951" y="640" width="120" height="60" as="geometry" />
        </mxCell>
        <mxCell id="MZrcCQdvljvRuOeF0CK3-68" style="edgeStyle=orthogonalEdgeStyle;rounded=0;orthogonalLoop=1;jettySize=auto;html=1;exitX=0.5;exitY=1;exitDx=0;exitDy=0;entryX=0.5;entryY=0;entryDx=0;entryDy=0;" edge="1" parent="MZrcCQdvljvRuOeF0CK3-1" source="MZrcCQdvljvRuOeF0CK3-70" target="MZrcCQdvljvRuOeF0CK3-72">
          <mxGeometry relative="1" as="geometry" />
        </mxCell>
        <mxCell id="MZrcCQdvljvRuOeF0CK3-69" style="edgeStyle=orthogonalEdgeStyle;rounded=0;orthogonalLoop=1;jettySize=auto;html=1;exitX=0;exitY=0.5;exitDx=0;exitDy=0;entryX=1;entryY=0.5;entryDx=0;entryDy=0;" edge="1" parent="MZrcCQdvljvRuOeF0CK3-1" source="MZrcCQdvljvRuOeF0CK3-70" target="MZrcCQdvljvRuOeF0CK3-76">
          <mxGeometry relative="1" as="geometry" />
        </mxCell>
        <mxCell id="MZrcCQdvljvRuOeF0CK3-70" value="i &amp;lt; 4" style="rhombus;whiteSpace=wrap;html=1;" vertex="1" parent="MZrcCQdvljvRuOeF0CK3-1">
          <mxGeometry x="936" y="720" width="150" height="80" as="geometry" />
        </mxCell>
        <mxCell id="MZrcCQdvljvRuOeF0CK3-71" style="edgeStyle=orthogonalEdgeStyle;rounded=0;orthogonalLoop=1;jettySize=auto;html=1;exitX=1;exitY=0.5;exitDx=0;exitDy=0;entryX=0.5;entryY=1;entryDx=0;entryDy=0;" edge="1" parent="MZrcCQdvljvRuOeF0CK3-1" source="MZrcCQdvljvRuOeF0CK3-72" target="MZrcCQdvljvRuOeF0CK3-74">
          <mxGeometry relative="1" as="geometry" />
        </mxCell>
        <mxCell id="MZrcCQdvljvRuOeF0CK3-72" value="sGuess[i] = &#39;0&#39; + pos" style="rounded=0;whiteSpace=wrap;html=1;container=0;" vertex="1" parent="MZrcCQdvljvRuOeF0CK3-1">
          <mxGeometry x="951" y="820" width="120" height="60" as="geometry" />
        </mxCell>
        <mxCell id="MZrcCQdvljvRuOeF0CK3-73" style="edgeStyle=orthogonalEdgeStyle;rounded=0;orthogonalLoop=1;jettySize=auto;html=1;exitX=0;exitY=0.5;exitDx=0;exitDy=0;entryX=1;entryY=0.5;entryDx=0;entryDy=0;" edge="1" parent="MZrcCQdvljvRuOeF0CK3-1" source="MZrcCQdvljvRuOeF0CK3-74" target="MZrcCQdvljvRuOeF0CK3-70">
          <mxGeometry relative="1" as="geometry" />
        </mxCell>
        <mxCell id="MZrcCQdvljvRuOeF0CK3-74" value="i++" style="rounded=0;whiteSpace=wrap;html=1;container=0;" vertex="1" parent="MZrcCQdvljvRuOeF0CK3-1">
          <mxGeometry x="1106" y="730" width="120" height="60" as="geometry" />
        </mxCell>
        <mxCell id="MZrcCQdvljvRuOeF0CK3-75" style="edgeStyle=orthogonalEdgeStyle;rounded=0;orthogonalLoop=1;jettySize=auto;html=1;exitX=0;exitY=0.5;exitDx=0;exitDy=0;entryX=1;entryY=0.5;entryDx=0;entryDy=0;" edge="1" parent="MZrcCQdvljvRuOeF0CK3-1" source="MZrcCQdvljvRuOeF0CK3-76" target="MZrcCQdvljvRuOeF0CK3-47">
          <mxGeometry relative="1" as="geometry" />
        </mxCell>
        <mxCell id="MZrcCQdvljvRuOeF0CK3-76" value="pos++" style="rounded=0;whiteSpace=wrap;html=1;container=0;" vertex="1" parent="MZrcCQdvljvRuOeF0CK3-1">
          <mxGeometry x="795" y="730" width="120" height="60" as="geometry" />
        </mxCell>
        <mxCell id="MZrcCQdvljvRuOeF0CK3-77" style="edgeStyle=orthogonalEdgeStyle;rounded=0;orthogonalLoop=1;jettySize=auto;html=1;exitX=0.5;exitY=1;exitDx=0;exitDy=0;entryX=0.5;entryY=0;entryDx=0;entryDy=0;" edge="1" parent="MZrcCQdvljvRuOeF0CK3-1" source="MZrcCQdvljvRuOeF0CK3-79" target="MZrcCQdvljvRuOeF0CK3-81">
          <mxGeometry relative="1" as="geometry" />
        </mxCell>
        <mxCell id="MZrcCQdvljvRuOeF0CK3-78" style="edgeStyle=orthogonalEdgeStyle;rounded=0;orthogonalLoop=1;jettySize=auto;html=1;exitX=0;exitY=0.5;exitDx=0;exitDy=0;entryX=0.5;entryY=0;entryDx=0;entryDy=0;" edge="1" parent="MZrcCQdvljvRuOeF0CK3-1" source="MZrcCQdvljvRuOeF0CK3-79" target="MZrcCQdvljvRuOeF0CK3-47">
          <mxGeometry relative="1" as="geometry">
            <Array as="points">
              <mxPoint x="600" y="490" />
              <mxPoint x="600" y="670" />
              <mxPoint x="695" y="670" />
            </Array>
          </mxGeometry>
        </mxCell>
        <mxCell id="MZrcCQdvljvRuOeF0CK3-79" value="&lt;span style=&quot;background-color: initial;&quot;&gt;else if&lt;/span&gt;&lt;div&gt;&lt;span style=&quot;background-color: initial;&quot;&gt;digits.length() == 4&lt;/span&gt;&lt;/div&gt;&lt;div&gt;&lt;span style=&quot;background-color: initial;&quot;&gt;&lt;br&gt;&lt;/span&gt;&lt;/div&gt;" style="rhombus;whiteSpace=wrap;html=1;" vertex="1" parent="MZrcCQdvljvRuOeF0CK3-1">
          <mxGeometry x="620" y="450" width="150" height="80" as="geometry" />
        </mxCell>
        <mxCell id="MZrcCQdvljvRuOeF0CK3-80" style="edgeStyle=orthogonalEdgeStyle;rounded=0;orthogonalLoop=1;jettySize=auto;html=1;exitX=0.5;exitY=1;exitDx=0;exitDy=0;entryX=0.5;entryY=0;entryDx=0;entryDy=0;" edge="1" parent="MZrcCQdvljvRuOeF0CK3-1" source="MZrcCQdvljvRuOeF0CK3-81" target="MZrcCQdvljvRuOeF0CK3-47">
          <mxGeometry relative="1" as="geometry">
            <mxPoint x="695" y="890" as="targetPoint" />
          </mxGeometry>
        </mxCell>
        <mxCell id="MZrcCQdvljvRuOeF0CK3-81" value="pos = 0&lt;div&gt;indx = 0&lt;/div&gt;" style="rounded=0;whiteSpace=wrap;html=1;container=0;" vertex="1" parent="MZrcCQdvljvRuOeF0CK3-1">
          <mxGeometry x="635" y="550" width="120" height="60" as="geometry" />
        </mxCell>
        <mxCell id="MZrcCQdvljvRuOeF0CK3-82" style="edgeStyle=orthogonalEdgeStyle;rounded=0;orthogonalLoop=1;jettySize=auto;html=1;exitX=1;exitY=0.5;exitDx=0;exitDy=0;entryX=0;entryY=0.5;entryDx=0;entryDy=0;" edge="1" parent="MZrcCQdvljvRuOeF0CK3-1" source="MZrcCQdvljvRuOeF0CK3-84" target="MZrcCQdvljvRuOeF0CK3-86">
          <mxGeometry relative="1" as="geometry" />
        </mxCell>
        <mxCell id="MZrcCQdvljvRuOeF0CK3-83" style="edgeStyle=orthogonalEdgeStyle;rounded=0;orthogonalLoop=1;jettySize=auto;html=1;exitX=0.5;exitY=1;exitDx=0;exitDy=0;entryX=0.5;entryY=0;entryDx=0;entryDy=0;" edge="1" parent="MZrcCQdvljvRuOeF0CK3-1" source="MZrcCQdvljvRuOeF0CK3-84" target="MZrcCQdvljvRuOeF0CK3-91">
          <mxGeometry relative="1" as="geometry" />
        </mxCell>
        <mxCell id="MZrcCQdvljvRuOeF0CK3-84" value="&lt;span style=&quot;background-color: initial;&quot;&gt;rr == 1 &amp;amp;&amp;amp; rw == 0&lt;/span&gt;" style="rhombus;whiteSpace=wrap;html=1;" vertex="1" parent="MZrcCQdvljvRuOeF0CK3-1">
          <mxGeometry x="620" y="900" width="150" height="80" as="geometry" />
        </mxCell>
        <mxCell id="MZrcCQdvljvRuOeF0CK3-85" style="edgeStyle=orthogonalEdgeStyle;rounded=0;orthogonalLoop=1;jettySize=auto;html=1;exitX=1;exitY=0.5;exitDx=0;exitDy=0;entryX=0;entryY=0.5;entryDx=0;entryDy=0;" edge="1" parent="MZrcCQdvljvRuOeF0CK3-1" source="MZrcCQdvljvRuOeF0CK3-86" target="MZrcCQdvljvRuOeF0CK3-88">
          <mxGeometry relative="1" as="geometry" />
        </mxCell>
        <mxCell id="MZrcCQdvljvRuOeF0CK3-86" value="placed[pos-1] = digits[indx]" style="rounded=0;whiteSpace=wrap;html=1;container=0;" vertex="1" parent="MZrcCQdvljvRuOeF0CK3-1">
          <mxGeometry x="790" y="910" width="120" height="60" as="geometry" />
        </mxCell>
        <mxCell id="MZrcCQdvljvRuOeF0CK3-87" style="edgeStyle=orthogonalEdgeStyle;rounded=0;orthogonalLoop=1;jettySize=auto;html=1;exitX=0.5;exitY=1;exitDx=0;exitDy=0;entryX=0.5;entryY=0;entryDx=0;entryDy=0;" edge="1" parent="MZrcCQdvljvRuOeF0CK3-1" source="MZrcCQdvljvRuOeF0CK3-88" target="MZrcCQdvljvRuOeF0CK3-91">
          <mxGeometry relative="1" as="geometry">
            <mxPoint x="700" y="1000" as="targetPoint" />
            <Array as="points">
              <mxPoint x="1011" y="1000" />
              <mxPoint x="695" y="1000" />
            </Array>
          </mxGeometry>
        </mxCell>
        <mxCell id="MZrcCQdvljvRuOeF0CK3-88" value="found++&lt;div&gt;indx++&lt;/div&gt;&lt;div&gt;pos = 0&lt;/div&gt;" style="rounded=0;whiteSpace=wrap;html=1;container=0;" vertex="1" parent="MZrcCQdvljvRuOeF0CK3-1">
          <mxGeometry x="951" y="910" width="120" height="60" as="geometry" />
        </mxCell>
        <mxCell id="MZrcCQdvljvRuOeF0CK3-89" style="edgeStyle=orthogonalEdgeStyle;rounded=0;orthogonalLoop=1;jettySize=auto;html=1;exitX=0;exitY=0.5;exitDx=0;exitDy=0;entryX=1;entryY=0.5;entryDx=0;entryDy=0;" edge="1" parent="MZrcCQdvljvRuOeF0CK3-1" source="MZrcCQdvljvRuOeF0CK3-91" target="MZrcCQdvljvRuOeF0CK3-144">
          <mxGeometry relative="1" as="geometry" />
        </mxCell>
        <mxCell id="MZrcCQdvljvRuOeF0CK3-90" style="edgeStyle=orthogonalEdgeStyle;rounded=0;orthogonalLoop=1;jettySize=auto;html=1;exitX=1;exitY=0.5;exitDx=0;exitDy=0;entryX=0;entryY=0.5;entryDx=0;entryDy=0;" edge="1" parent="MZrcCQdvljvRuOeF0CK3-1" source="MZrcCQdvljvRuOeF0CK3-91" target="MZrcCQdvljvRuOeF0CK3-101">
          <mxGeometry relative="1" as="geometry" />
        </mxCell>
        <mxCell id="MZrcCQdvljvRuOeF0CK3-91" value="&lt;span style=&quot;background-color: initial;&quot;&gt;found == 4&lt;/span&gt;" style="rhombus;whiteSpace=wrap;html=1;" vertex="1" parent="MZrcCQdvljvRuOeF0CK3-1">
          <mxGeometry x="620" y="1020" width="150" height="80" as="geometry" />
        </mxCell>
        <mxCell id="MZrcCQdvljvRuOeF0CK3-92" style="edgeStyle=orthogonalEdgeStyle;rounded=0;orthogonalLoop=1;jettySize=auto;html=1;exitX=0;exitY=0.5;exitDx=0;exitDy=0;entryX=1;entryY=0.5;entryDx=0;entryDy=0;" edge="1" parent="MZrcCQdvljvRuOeF0CK3-1" source="MZrcCQdvljvRuOeF0CK3-93" target="MZrcCQdvljvRuOeF0CK3-96">
          <mxGeometry relative="1" as="geometry" />
        </mxCell>
        <mxCell id="MZrcCQdvljvRuOeF0CK3-93" value="i++" style="rounded=0;whiteSpace=wrap;html=1;container=0;" vertex="1" parent="MZrcCQdvljvRuOeF0CK3-1">
          <mxGeometry x="635" y="1120" width="120" height="60" as="geometry" />
        </mxCell>
        <mxCell id="MZrcCQdvljvRuOeF0CK3-94" style="edgeStyle=orthogonalEdgeStyle;rounded=0;orthogonalLoop=1;jettySize=auto;html=1;exitX=0.5;exitY=1;exitDx=0;exitDy=0;entryX=0.5;entryY=0;entryDx=0;entryDy=0;" edge="1" parent="MZrcCQdvljvRuOeF0CK3-1" source="MZrcCQdvljvRuOeF0CK3-96" target="MZrcCQdvljvRuOeF0CK3-98">
          <mxGeometry relative="1" as="geometry" />
        </mxCell>
        <mxCell id="MZrcCQdvljvRuOeF0CK3-95" style="edgeStyle=orthogonalEdgeStyle;rounded=0;orthogonalLoop=1;jettySize=auto;html=1;exitX=0;exitY=0.5;exitDx=0;exitDy=0;entryX=0.5;entryY=1;entryDx=0;entryDy=0;" edge="1" parent="MZrcCQdvljvRuOeF0CK3-1" source="MZrcCQdvljvRuOeF0CK3-96" target="MZrcCQdvljvRuOeF0CK3-136">
          <mxGeometry relative="1" as="geometry" />
        </mxCell>
        <mxCell id="MZrcCQdvljvRuOeF0CK3-96" value="i &amp;lt; 4" style="rhombus;whiteSpace=wrap;html=1;" vertex="1" parent="MZrcCQdvljvRuOeF0CK3-1">
          <mxGeometry x="440" y="1110" width="150" height="80" as="geometry" />
        </mxCell>
        <mxCell id="MZrcCQdvljvRuOeF0CK3-97" style="edgeStyle=orthogonalEdgeStyle;rounded=0;orthogonalLoop=1;jettySize=auto;html=1;exitX=1;exitY=0.5;exitDx=0;exitDy=0;entryX=0.5;entryY=1;entryDx=0;entryDy=0;" edge="1" parent="MZrcCQdvljvRuOeF0CK3-1" source="MZrcCQdvljvRuOeF0CK3-98" target="MZrcCQdvljvRuOeF0CK3-93">
          <mxGeometry relative="1" as="geometry" />
        </mxCell>
        <mxCell id="MZrcCQdvljvRuOeF0CK3-98" value="sGuess[i] = placed[i]" style="rounded=0;whiteSpace=wrap;html=1;container=0;" vertex="1" parent="MZrcCQdvljvRuOeF0CK3-1">
          <mxGeometry x="455" y="1210" width="120" height="60" as="geometry" />
        </mxCell>
        <mxCell id="MZrcCQdvljvRuOeF0CK3-99" style="edgeStyle=orthogonalEdgeStyle;rounded=0;orthogonalLoop=1;jettySize=auto;html=1;exitX=1;exitY=0.5;exitDx=0;exitDy=0;entryX=0;entryY=0.5;entryDx=0;entryDy=0;" edge="1" parent="MZrcCQdvljvRuOeF0CK3-1" source="MZrcCQdvljvRuOeF0CK3-101" target="MZrcCQdvljvRuOeF0CK3-103">
          <mxGeometry relative="1" as="geometry" />
        </mxCell>
        <mxCell id="MZrcCQdvljvRuOeF0CK3-100" style="edgeStyle=orthogonalEdgeStyle;rounded=0;orthogonalLoop=1;jettySize=auto;html=1;exitX=0.5;exitY=1;exitDx=0;exitDy=0;entryX=0.5;entryY=0;entryDx=0;entryDy=0;" edge="1" parent="MZrcCQdvljvRuOeF0CK3-1" source="MZrcCQdvljvRuOeF0CK3-101" target="MZrcCQdvljvRuOeF0CK3-106">
          <mxGeometry relative="1" as="geometry" />
        </mxCell>
        <mxCell id="MZrcCQdvljvRuOeF0CK3-101" value="&lt;span style=&quot;background-color: initial;&quot;&gt;while&lt;/span&gt;&lt;div&gt;&lt;span style=&quot;background-color: initial;&quot;&gt;pos &amp;lt; 4 &amp;amp;&amp;amp; placed[pos]&lt;/span&gt;&lt;/div&gt;&lt;div&gt;&lt;span style=&quot;background-color: initial;&quot;&gt;!= &#39;x&#39;&lt;/span&gt;&lt;/div&gt;" style="rhombus;whiteSpace=wrap;html=1;" vertex="1" parent="MZrcCQdvljvRuOeF0CK3-1">
          <mxGeometry x="936" y="1060" width="150" height="80" as="geometry" />
        </mxCell>
        <mxCell id="MZrcCQdvljvRuOeF0CK3-102" style="edgeStyle=orthogonalEdgeStyle;rounded=0;orthogonalLoop=1;jettySize=auto;html=1;exitX=0.5;exitY=0;exitDx=0;exitDy=0;entryX=0.5;entryY=0;entryDx=0;entryDy=0;" edge="1" parent="MZrcCQdvljvRuOeF0CK3-1" source="MZrcCQdvljvRuOeF0CK3-103" target="MZrcCQdvljvRuOeF0CK3-101">
          <mxGeometry relative="1" as="geometry">
            <Array as="points">
              <mxPoint x="1166" y="1070" />
              <mxPoint x="1166" y="1040" />
              <mxPoint x="1011" y="1040" />
            </Array>
          </mxGeometry>
        </mxCell>
        <mxCell id="MZrcCQdvljvRuOeF0CK3-103" value="pos++" style="rounded=0;whiteSpace=wrap;html=1;container=0;" vertex="1" parent="MZrcCQdvljvRuOeF0CK3-1">
          <mxGeometry x="1111" y="1070" width="120" height="60" as="geometry" />
        </mxCell>
        <mxCell id="MZrcCQdvljvRuOeF0CK3-104" style="edgeStyle=orthogonalEdgeStyle;rounded=0;orthogonalLoop=1;jettySize=auto;html=1;exitX=1;exitY=0.5;exitDx=0;exitDy=0;entryX=0;entryY=0.5;entryDx=0;entryDy=0;" edge="1" parent="MZrcCQdvljvRuOeF0CK3-1" source="MZrcCQdvljvRuOeF0CK3-106" target="MZrcCQdvljvRuOeF0CK3-108">
          <mxGeometry relative="1" as="geometry" />
        </mxCell>
        <mxCell id="MZrcCQdvljvRuOeF0CK3-105" style="edgeStyle=orthogonalEdgeStyle;rounded=0;orthogonalLoop=1;jettySize=auto;html=1;exitX=0.5;exitY=1;exitDx=0;exitDy=0;entryX=0.5;entryY=0;entryDx=0;entryDy=0;" edge="1" parent="MZrcCQdvljvRuOeF0CK3-1" source="MZrcCQdvljvRuOeF0CK3-106" target="MZrcCQdvljvRuOeF0CK3-110">
          <mxGeometry relative="1" as="geometry" />
        </mxCell>
        <mxCell id="MZrcCQdvljvRuOeF0CK3-106" value="pos == 4" style="rhombus;whiteSpace=wrap;html=1;" vertex="1" parent="MZrcCQdvljvRuOeF0CK3-1">
          <mxGeometry x="936" y="1200" width="150" height="80" as="geometry" />
        </mxCell>
        <mxCell id="MZrcCQdvljvRuOeF0CK3-107" style="edgeStyle=orthogonalEdgeStyle;rounded=0;orthogonalLoop=1;jettySize=auto;html=1;exitX=0.5;exitY=1;exitDx=0;exitDy=0;entryX=1;entryY=0.5;entryDx=0;entryDy=0;" edge="1" parent="MZrcCQdvljvRuOeF0CK3-1" source="MZrcCQdvljvRuOeF0CK3-108" target="MZrcCQdvljvRuOeF0CK3-110">
          <mxGeometry relative="1" as="geometry" />
        </mxCell>
        <mxCell id="MZrcCQdvljvRuOeF0CK3-108" value="pos = 0&lt;div&gt;indx++&lt;/div&gt;" style="rounded=0;whiteSpace=wrap;html=1;container=0;" vertex="1" parent="MZrcCQdvljvRuOeF0CK3-1">
          <mxGeometry x="1106" y="1210" width="120" height="60" as="geometry" />
        </mxCell>
        <mxCell id="MZrcCQdvljvRuOeF0CK3-109" style="edgeStyle=orthogonalEdgeStyle;rounded=0;orthogonalLoop=1;jettySize=auto;html=1;exitX=0;exitY=0.5;exitDx=0;exitDy=0;entryX=1;entryY=0.5;entryDx=0;entryDy=0;" edge="1" parent="MZrcCQdvljvRuOeF0CK3-1" source="MZrcCQdvljvRuOeF0CK3-110" target="MZrcCQdvljvRuOeF0CK3-113">
          <mxGeometry relative="1" as="geometry" />
        </mxCell>
        <mxCell id="MZrcCQdvljvRuOeF0CK3-110" value="char wrong = &#39;0&#39;" style="rounded=0;whiteSpace=wrap;html=1;container=0;" vertex="1" parent="MZrcCQdvljvRuOeF0CK3-1">
          <mxGeometry x="951" y="1300" width="120" height="60" as="geometry" />
        </mxCell>
        <mxCell id="MZrcCQdvljvRuOeF0CK3-111" style="edgeStyle=orthogonalEdgeStyle;rounded=0;orthogonalLoop=1;jettySize=auto;html=1;exitX=0.5;exitY=0;exitDx=0;exitDy=0;entryX=0.5;entryY=1;entryDx=0;entryDy=0;" edge="1" parent="MZrcCQdvljvRuOeF0CK3-1" source="MZrcCQdvljvRuOeF0CK3-113" target="MZrcCQdvljvRuOeF0CK3-115">
          <mxGeometry relative="1" as="geometry" />
        </mxCell>
        <mxCell id="MZrcCQdvljvRuOeF0CK3-112" style="edgeStyle=orthogonalEdgeStyle;rounded=0;orthogonalLoop=1;jettySize=auto;html=1;exitX=0.5;exitY=1;exitDx=0;exitDy=0;entryX=1;entryY=0.5;entryDx=0;entryDy=0;" edge="1" parent="MZrcCQdvljvRuOeF0CK3-1" source="MZrcCQdvljvRuOeF0CK3-113" target="MZrcCQdvljvRuOeF0CK3-117">
          <mxGeometry relative="1" as="geometry" />
        </mxCell>
        <mxCell id="MZrcCQdvljvRuOeF0CK3-113" value="while&lt;div&gt;wrong is in digits&lt;/div&gt;" style="rhombus;whiteSpace=wrap;html=1;" vertex="1" parent="MZrcCQdvljvRuOeF0CK3-1">
          <mxGeometry x="775" y="1290" width="150" height="80" as="geometry" />
        </mxCell>
        <mxCell id="MZrcCQdvljvRuOeF0CK3-114" style="edgeStyle=orthogonalEdgeStyle;rounded=0;orthogonalLoop=1;jettySize=auto;html=1;exitX=0;exitY=0.5;exitDx=0;exitDy=0;entryX=0;entryY=0.5;entryDx=0;entryDy=0;" edge="1" parent="MZrcCQdvljvRuOeF0CK3-1" source="MZrcCQdvljvRuOeF0CK3-115" target="MZrcCQdvljvRuOeF0CK3-113">
          <mxGeometry relative="1" as="geometry">
            <Array as="points">
              <mxPoint x="750" y="1240" />
              <mxPoint x="750" y="1330" />
            </Array>
          </mxGeometry>
        </mxCell>
        <mxCell id="MZrcCQdvljvRuOeF0CK3-115" value="wrong++" style="rounded=0;whiteSpace=wrap;html=1;container=0;" vertex="1" parent="MZrcCQdvljvRuOeF0CK3-1">
          <mxGeometry x="790" y="1210" width="120" height="60" as="geometry" />
        </mxCell>
        <mxCell id="MZrcCQdvljvRuOeF0CK3-116" style="edgeStyle=orthogonalEdgeStyle;rounded=0;orthogonalLoop=1;jettySize=auto;html=1;exitX=0;exitY=0.5;exitDx=0;exitDy=0;entryX=1;entryY=0.5;entryDx=0;entryDy=0;" edge="1" parent="MZrcCQdvljvRuOeF0CK3-1" source="MZrcCQdvljvRuOeF0CK3-117" target="MZrcCQdvljvRuOeF0CK3-120">
          <mxGeometry relative="1" as="geometry" />
        </mxCell>
        <mxCell id="MZrcCQdvljvRuOeF0CK3-117" value="i = 0" style="rounded=0;whiteSpace=wrap;html=1;container=0;" vertex="1" parent="MZrcCQdvljvRuOeF0CK3-1">
          <mxGeometry x="635" y="1390" width="120" height="60" as="geometry" />
        </mxCell>
        <mxCell id="MZrcCQdvljvRuOeF0CK3-118" style="edgeStyle=orthogonalEdgeStyle;rounded=0;orthogonalLoop=1;jettySize=auto;html=1;exitX=0;exitY=0.5;exitDx=0;exitDy=0;entryX=1;entryY=0.5;entryDx=0;entryDy=0;" edge="1" parent="MZrcCQdvljvRuOeF0CK3-1" source="MZrcCQdvljvRuOeF0CK3-120" target="MZrcCQdvljvRuOeF0CK3-127">
          <mxGeometry relative="1" as="geometry" />
        </mxCell>
        <mxCell id="MZrcCQdvljvRuOeF0CK3-119" style="edgeStyle=orthogonalEdgeStyle;rounded=0;orthogonalLoop=1;jettySize=auto;html=1;exitX=0.5;exitY=0;exitDx=0;exitDy=0;entryX=0.5;entryY=1;entryDx=0;entryDy=0;" edge="1" parent="MZrcCQdvljvRuOeF0CK3-1" source="MZrcCQdvljvRuOeF0CK3-120" target="MZrcCQdvljvRuOeF0CK3-132">
          <mxGeometry relative="1" as="geometry" />
        </mxCell>
        <mxCell id="MZrcCQdvljvRuOeF0CK3-120" value="i &amp;lt; 4" style="rhombus;whiteSpace=wrap;html=1;" vertex="1" parent="MZrcCQdvljvRuOeF0CK3-1">
          <mxGeometry x="440" y="1380" width="150" height="80" as="geometry" />
        </mxCell>
        <mxCell id="MZrcCQdvljvRuOeF0CK3-121" style="edgeStyle=orthogonalEdgeStyle;rounded=0;orthogonalLoop=1;jettySize=auto;html=1;exitX=0.5;exitY=1;exitDx=0;exitDy=0;entryX=0;entryY=0.5;entryDx=0;entryDy=0;" edge="1" parent="MZrcCQdvljvRuOeF0CK3-1" source="MZrcCQdvljvRuOeF0CK3-122" target="MZrcCQdvljvRuOeF0CK3-124">
          <mxGeometry relative="1" as="geometry" />
        </mxCell>
        <mxCell id="MZrcCQdvljvRuOeF0CK3-122" value="sGuess[i] = wrong" style="rounded=0;whiteSpace=wrap;html=1;container=0;" vertex="1" parent="MZrcCQdvljvRuOeF0CK3-1">
          <mxGeometry x="140" y="1390" width="120" height="60" as="geometry" />
        </mxCell>
        <mxCell id="MZrcCQdvljvRuOeF0CK3-123" style="edgeStyle=orthogonalEdgeStyle;rounded=0;orthogonalLoop=1;jettySize=auto;html=1;exitX=0.5;exitY=0;exitDx=0;exitDy=0;entryX=0.5;entryY=1;entryDx=0;entryDy=0;" edge="1" parent="MZrcCQdvljvRuOeF0CK3-1" source="MZrcCQdvljvRuOeF0CK3-124" target="MZrcCQdvljvRuOeF0CK3-120">
          <mxGeometry relative="1" as="geometry" />
        </mxCell>
        <mxCell id="MZrcCQdvljvRuOeF0CK3-124" value="i++" style="rounded=0;whiteSpace=wrap;html=1;container=0;" vertex="1" parent="MZrcCQdvljvRuOeF0CK3-1">
          <mxGeometry x="455" y="1480" width="120" height="60" as="geometry" />
        </mxCell>
        <mxCell id="MZrcCQdvljvRuOeF0CK3-125" style="edgeStyle=orthogonalEdgeStyle;rounded=0;orthogonalLoop=1;jettySize=auto;html=1;exitX=0;exitY=0.5;exitDx=0;exitDy=0;entryX=1;entryY=0.5;entryDx=0;entryDy=0;" edge="1" parent="MZrcCQdvljvRuOeF0CK3-1" source="MZrcCQdvljvRuOeF0CK3-127" target="MZrcCQdvljvRuOeF0CK3-122">
          <mxGeometry relative="1" as="geometry" />
        </mxCell>
        <mxCell id="MZrcCQdvljvRuOeF0CK3-126" style="edgeStyle=orthogonalEdgeStyle;rounded=0;orthogonalLoop=1;jettySize=auto;html=1;exitX=0.5;exitY=0;exitDx=0;exitDy=0;entryX=0.5;entryY=0;entryDx=0;entryDy=0;" edge="1" parent="MZrcCQdvljvRuOeF0CK3-1" source="MZrcCQdvljvRuOeF0CK3-127" target="MZrcCQdvljvRuOeF0CK3-129">
          <mxGeometry relative="1" as="geometry" />
        </mxCell>
        <mxCell id="MZrcCQdvljvRuOeF0CK3-127" value="i != pos" style="rhombus;whiteSpace=wrap;html=1;" vertex="1" parent="MZrcCQdvljvRuOeF0CK3-1">
          <mxGeometry x="275" y="1380" width="150" height="80" as="geometry" />
        </mxCell>
        <mxCell id="MZrcCQdvljvRuOeF0CK3-128" style="edgeStyle=orthogonalEdgeStyle;rounded=0;orthogonalLoop=1;jettySize=auto;html=1;exitX=0.5;exitY=1;exitDx=0;exitDy=0;entryX=0;entryY=0.5;entryDx=0;entryDy=0;" edge="1" parent="MZrcCQdvljvRuOeF0CK3-1" source="MZrcCQdvljvRuOeF0CK3-129" target="MZrcCQdvljvRuOeF0CK3-124">
          <mxGeometry relative="1" as="geometry" />
        </mxCell>
        <mxCell id="MZrcCQdvljvRuOeF0CK3-129" value="else&lt;div&gt;&lt;font style=&quot;font-size: 10px;&quot;&gt;sGuess[pos] = digits[indx]&lt;/font&gt;&lt;/div&gt;" style="rounded=0;whiteSpace=wrap;html=1;container=0;" vertex="1" parent="MZrcCQdvljvRuOeF0CK3-1">
          <mxGeometry y="1390" width="120" height="60" as="geometry" />
        </mxCell>
        <mxCell id="MZrcCQdvljvRuOeF0CK3-130" style="edgeStyle=orthogonalEdgeStyle;rounded=0;orthogonalLoop=1;jettySize=auto;html=1;exitX=0;exitY=0.5;exitDx=0;exitDy=0;entryX=1;entryY=0.5;entryDx=0;entryDy=0;" edge="1" parent="MZrcCQdvljvRuOeF0CK3-1" source="MZrcCQdvljvRuOeF0CK3-132" target="MZrcCQdvljvRuOeF0CK3-134">
          <mxGeometry relative="1" as="geometry" />
        </mxCell>
        <mxCell id="MZrcCQdvljvRuOeF0CK3-131" style="edgeStyle=orthogonalEdgeStyle;rounded=0;orthogonalLoop=1;jettySize=auto;html=1;exitX=0.5;exitY=0;exitDx=0;exitDy=0;entryX=0.5;entryY=1;entryDx=0;entryDy=0;" edge="1" parent="MZrcCQdvljvRuOeF0CK3-1" source="MZrcCQdvljvRuOeF0CK3-132" target="MZrcCQdvljvRuOeF0CK3-136">
          <mxGeometry relative="1" as="geometry">
            <Array as="points">
              <mxPoint x="345" y="990" />
              <mxPoint x="420" y="990" />
            </Array>
          </mxGeometry>
        </mxCell>
        <mxCell id="MZrcCQdvljvRuOeF0CK3-132" value="pos &amp;lt; 4" style="rhombus;whiteSpace=wrap;html=1;" vertex="1" parent="MZrcCQdvljvRuOeF0CK3-1">
          <mxGeometry x="270" y="1200" width="150" height="80" as="geometry" />
        </mxCell>
        <mxCell id="MZrcCQdvljvRuOeF0CK3-133" style="edgeStyle=orthogonalEdgeStyle;rounded=0;orthogonalLoop=1;jettySize=auto;html=1;exitX=0.5;exitY=0;exitDx=0;exitDy=0;entryX=0.5;entryY=1;entryDx=0;entryDy=0;" edge="1" parent="MZrcCQdvljvRuOeF0CK3-1" source="MZrcCQdvljvRuOeF0CK3-134" target="MZrcCQdvljvRuOeF0CK3-136">
          <mxGeometry relative="1" as="geometry">
            <Array as="points">
              <mxPoint x="190" y="990" />
              <mxPoint x="420" y="990" />
            </Array>
          </mxGeometry>
        </mxCell>
        <mxCell id="MZrcCQdvljvRuOeF0CK3-134" value="pos++" style="rounded=0;whiteSpace=wrap;html=1;container=0;" vertex="1" parent="MZrcCQdvljvRuOeF0CK3-1">
          <mxGeometry x="130" y="1210" width="120" height="60" as="geometry" />
        </mxCell>
        <mxCell id="MZrcCQdvljvRuOeF0CK3-135" style="edgeStyle=orthogonalEdgeStyle;rounded=0;orthogonalLoop=1;jettySize=auto;html=1;exitX=0.5;exitY=0;exitDx=0;exitDy=0;entryX=0.5;entryY=1;entryDx=0;entryDy=0;" edge="1" parent="MZrcCQdvljvRuOeF0CK3-1" source="MZrcCQdvljvRuOeF0CK3-136" target="MZrcCQdvljvRuOeF0CK3-25">
          <mxGeometry relative="1" as="geometry" />
        </mxCell>
        <mxCell id="MZrcCQdvljvRuOeF0CK3-136" value="aGuess[++guess] =&lt;div&gt;sGuess&lt;/div&gt;" style="rounded=0;whiteSpace=wrap;html=1;container=0;" vertex="1" parent="MZrcCQdvljvRuOeF0CK3-1">
          <mxGeometry x="360" y="730" width="120" height="60" as="geometry" />
        </mxCell>
        <mxCell id="MZrcCQdvljvRuOeF0CK3-137" value="Yes" style="text;html=1;strokeColor=none;fillColor=none;align=center;verticalAlign=middle;whiteSpace=wrap;rounded=0;container=0;" vertex="1" parent="MZrcCQdvljvRuOeF0CK3-1">
          <mxGeometry x="805" y="340" width="60" height="30" as="geometry" />
        </mxCell>
        <mxCell id="MZrcCQdvljvRuOeF0CK3-138" value="Yes" style="text;html=1;strokeColor=none;fillColor=none;align=center;verticalAlign=middle;whiteSpace=wrap;rounded=0;container=0;" vertex="1" parent="MZrcCQdvljvRuOeF0CK3-1">
          <mxGeometry x="961" y="520" width="60" height="30" as="geometry" />
        </mxCell>
        <mxCell id="MZrcCQdvljvRuOeF0CK3-139" value="Yes" style="text;html=1;strokeColor=none;fillColor=none;align=center;verticalAlign=middle;whiteSpace=wrap;rounded=0;container=0;" vertex="1" parent="MZrcCQdvljvRuOeF0CK3-1">
          <mxGeometry x="961" y="790" width="60" height="30" as="geometry" />
        </mxCell>
        <mxCell id="MZrcCQdvljvRuOeF0CK3-140" value="Yes" style="text;html=1;strokeColor=none;fillColor=none;align=center;verticalAlign=middle;whiteSpace=wrap;rounded=0;container=0;" vertex="1" parent="MZrcCQdvljvRuOeF0CK3-1">
          <mxGeometry x="920" y="10" width="60" height="30" as="geometry" />
        </mxCell>
        <mxCell id="MZrcCQdvljvRuOeF0CK3-141" value="" style="endArrow=classic;html=1;rounded=0;" edge="1" parent="MZrcCQdvljvRuOeF0CK3-1">
          <mxGeometry width="50" height="50" relative="1" as="geometry">
            <mxPoint x="610" y="670" as="sourcePoint" />
            <mxPoint x="695" y="670" as="targetPoint" />
          </mxGeometry>
        </mxCell>
        <mxCell id="MZrcCQdvljvRuOeF0CK3-142" value="" style="endArrow=classic;html=1;rounded=0;" edge="1" parent="MZrcCQdvljvRuOeF0CK3-1">
          <mxGeometry width="50" height="50" relative="1" as="geometry">
            <mxPoint x="835" y="1000" as="sourcePoint" />
            <mxPoint x="695" y="1000" as="targetPoint" />
          </mxGeometry>
        </mxCell>
        <mxCell id="MZrcCQdvljvRuOeF0CK3-143" style="edgeStyle=orthogonalEdgeStyle;rounded=0;orthogonalLoop=1;jettySize=auto;html=1;exitX=0.5;exitY=1;exitDx=0;exitDy=0;entryX=0.5;entryY=0;entryDx=0;entryDy=0;" edge="1" parent="MZrcCQdvljvRuOeF0CK3-1" source="MZrcCQdvljvRuOeF0CK3-144" target="MZrcCQdvljvRuOeF0CK3-96">
          <mxGeometry relative="1" as="geometry" />
        </mxCell>
        <mxCell id="MZrcCQdvljvRuOeF0CK3-144" value="i = 0" style="rounded=0;whiteSpace=wrap;html=1;container=0;" vertex="1" parent="MZrcCQdvljvRuOeF0CK3-1">
          <mxGeometry x="455" y="1030" width="120" height="60" as="geometry" />
        </mxCell>
        <mxCell id="MZrcCQdvljvRuOeF0CK3-145" value="End AI" style="ellipse;whiteSpace=wrap;html=1;" vertex="1" parent="MZrcCQdvljvRuOeF0CK3-1">
          <mxGeometry x="170" y="610" width="120" height="40" as="geometry" />
        </mxCell>
        <mxCell id="MZrcCQdvljvRuOeF0CK3-146" value="No" style="text;html=1;strokeColor=none;fillColor=none;align=center;verticalAlign=middle;whiteSpace=wrap;rounded=0;container=0;" vertex="1" parent="MZrcCQdvljvRuOeF0CK3-1">
          <mxGeometry x="570" y="10" width="60" height="30" as="geometry" />
        </mxCell>
        <mxCell id="MZrcCQdvljvRuOeF0CK3-147" value="No" style="text;html=1;strokeColor=none;fillColor=none;align=center;verticalAlign=middle;whiteSpace=wrap;rounded=0;container=0;" vertex="1" parent="MZrcCQdvljvRuOeF0CK3-1">
          <mxGeometry x="640" y="80" width="60" height="30" as="geometry" />
        </mxCell>
        <mxCell id="MZrcCQdvljvRuOeF0CK3-148" value="No" style="text;html=1;strokeColor=none;fillColor=none;align=center;verticalAlign=middle;whiteSpace=wrap;rounded=0;container=0;" vertex="1" parent="MZrcCQdvljvRuOeF0CK3-1">
          <mxGeometry x="480" y="323" width="60" height="30" as="geometry" />
        </mxCell>
        <mxCell id="MZrcCQdvljvRuOeF0CK3-149" value="No" style="text;html=1;strokeColor=none;fillColor=none;align=center;verticalAlign=middle;whiteSpace=wrap;rounded=0;container=0;" vertex="1" parent="MZrcCQdvljvRuOeF0CK3-1">
          <mxGeometry x="590" y="460" width="60" height="30" as="geometry" />
        </mxCell>
        <mxCell id="MZrcCQdvljvRuOeF0CK3-150" value="Yes" style="text;html=1;strokeColor=none;fillColor=none;align=center;verticalAlign=middle;whiteSpace=wrap;rounded=0;container=0;" vertex="1" parent="MZrcCQdvljvRuOeF0CK3-1">
          <mxGeometry x="680" y="520" width="60" height="30" as="geometry" />
        </mxCell>
        <mxCell id="MZrcCQdvljvRuOeF0CK3-151" value="No" style="text;html=1;strokeColor=none;fillColor=none;align=center;verticalAlign=middle;whiteSpace=wrap;rounded=0;container=0;" vertex="1" parent="MZrcCQdvljvRuOeF0CK3-1">
          <mxGeometry x="810" y="80" width="60" height="30" as="geometry" />
        </mxCell>
        <mxCell id="MZrcCQdvljvRuOeF0CK3-152" value="No" style="text;html=1;strokeColor=none;fillColor=none;align=center;verticalAlign=middle;whiteSpace=wrap;rounded=0;container=0;" vertex="1" parent="MZrcCQdvljvRuOeF0CK3-1">
          <mxGeometry x="740" y="280" width="60" height="30" as="geometry" />
        </mxCell>
        <mxCell id="MZrcCQdvljvRuOeF0CK3-153" value="No" style="text;html=1;strokeColor=none;fillColor=none;align=center;verticalAlign=middle;whiteSpace=wrap;rounded=0;container=0;" vertex="1" parent="MZrcCQdvljvRuOeF0CK3-1">
          <mxGeometry x="1060" y="190" width="60" height="30" as="geometry" />
        </mxCell>
        <mxCell id="MZrcCQdvljvRuOeF0CK3-154" value="No" style="text;html=1;strokeColor=none;fillColor=none;align=center;verticalAlign=middle;whiteSpace=wrap;rounded=0;container=0;" vertex="1" parent="MZrcCQdvljvRuOeF0CK3-1">
          <mxGeometry x="891" y="460" width="60" height="30" as="geometry" />
        </mxCell>
        <mxCell id="MZrcCQdvljvRuOeF0CK3-155" value="No" style="text;html=1;strokeColor=none;fillColor=none;align=center;verticalAlign=middle;whiteSpace=wrap;rounded=0;container=0;" vertex="1" parent="MZrcCQdvljvRuOeF0CK3-1">
          <mxGeometry x="901" y="730" width="60" height="30" as="geometry" />
        </mxCell>
        <mxCell id="MZrcCQdvljvRuOeF0CK3-156" value="No" style="text;html=1;strokeColor=none;fillColor=none;align=center;verticalAlign=middle;whiteSpace=wrap;rounded=0;container=0;" vertex="1" parent="MZrcCQdvljvRuOeF0CK3-1">
          <mxGeometry x="580" y="730" width="60" height="30" as="geometry" />
        </mxCell>
        <mxCell id="MZrcCQdvljvRuOeF0CK3-157" value="Yes" style="text;html=1;strokeColor=none;fillColor=none;align=center;verticalAlign=middle;whiteSpace=wrap;rounded=0;container=0;" vertex="1" parent="MZrcCQdvljvRuOeF0CK3-1">
          <mxGeometry x="650" y="800" width="60" height="30" as="geometry" />
        </mxCell>
        <mxCell id="MZrcCQdvljvRuOeF0CK3-158" value="Yes" style="text;html=1;strokeColor=none;fillColor=none;align=center;verticalAlign=middle;whiteSpace=wrap;rounded=0;container=0;" vertex="1" parent="MZrcCQdvljvRuOeF0CK3-1">
          <mxGeometry x="740" y="910" width="60" height="30" as="geometry" />
        </mxCell>
        <mxCell id="MZrcCQdvljvRuOeF0CK3-159" value="No" style="text;html=1;strokeColor=none;fillColor=none;align=center;verticalAlign=middle;whiteSpace=wrap;rounded=0;container=0;" vertex="1" parent="MZrcCQdvljvRuOeF0CK3-1">
          <mxGeometry x="650" y="970" width="60" height="30" as="geometry" />
        </mxCell>
        <mxCell id="MZrcCQdvljvRuOeF0CK3-160" value="Yes" style="text;html=1;strokeColor=none;fillColor=none;align=center;verticalAlign=middle;whiteSpace=wrap;rounded=0;container=0;" vertex="1" parent="MZrcCQdvljvRuOeF0CK3-1">
          <mxGeometry x="575" y="1030" width="60" height="30" as="geometry" />
        </mxCell>
        <mxCell id="MZrcCQdvljvRuOeF0CK3-161" value="No" style="text;html=1;strokeColor=none;fillColor=none;align=center;verticalAlign=middle;whiteSpace=wrap;rounded=0;container=0;" vertex="1" parent="MZrcCQdvljvRuOeF0CK3-1">
          <mxGeometry x="760" y="1030" width="60" height="30" as="geometry" />
        </mxCell>
        <mxCell id="MZrcCQdvljvRuOeF0CK3-162" value="Yes" style="text;html=1;strokeColor=none;fillColor=none;align=center;verticalAlign=middle;whiteSpace=wrap;rounded=0;container=0;" vertex="1" parent="MZrcCQdvljvRuOeF0CK3-1">
          <mxGeometry x="470" y="1180" width="60" height="30" as="geometry" />
        </mxCell>
        <mxCell id="MZrcCQdvljvRuOeF0CK3-163" value="No" style="text;html=1;strokeColor=none;fillColor=none;align=center;verticalAlign=middle;whiteSpace=wrap;rounded=0;container=0;" vertex="1" parent="MZrcCQdvljvRuOeF0CK3-1">
          <mxGeometry x="961" y="1135" width="60" height="30" as="geometry" />
        </mxCell>
        <mxCell id="MZrcCQdvljvRuOeF0CK3-164" value="No" style="text;html=1;strokeColor=none;fillColor=none;align=center;verticalAlign=middle;whiteSpace=wrap;rounded=0;container=0;" vertex="1" parent="MZrcCQdvljvRuOeF0CK3-1">
          <mxGeometry x="410" y="1120" width="60" height="30" as="geometry" />
        </mxCell>
        <mxCell id="MZrcCQdvljvRuOeF0CK3-165" value="Yes" style="text;html=1;strokeColor=none;fillColor=none;align=center;verticalAlign=middle;whiteSpace=wrap;rounded=0;container=0;" vertex="1" parent="MZrcCQdvljvRuOeF0CK3-1">
          <mxGeometry x="240" y="1210" width="60" height="30" as="geometry" />
        </mxCell>
        <mxCell id="MZrcCQdvljvRuOeF0CK3-166" value="No" style="text;html=1;strokeColor=none;fillColor=none;align=center;verticalAlign=middle;whiteSpace=wrap;rounded=0;container=0;" vertex="1" parent="MZrcCQdvljvRuOeF0CK3-1">
          <mxGeometry x="300" y="1170" width="60" height="30" as="geometry" />
        </mxCell>
        <mxCell id="MZrcCQdvljvRuOeF0CK3-167" value="Yes" style="text;html=1;strokeColor=none;fillColor=none;align=center;verticalAlign=middle;whiteSpace=wrap;rounded=0;container=0;" vertex="1" parent="MZrcCQdvljvRuOeF0CK3-1">
          <mxGeometry x="1060" y="1070" width="60" height="30" as="geometry" />
        </mxCell>
        <mxCell id="MZrcCQdvljvRuOeF0CK3-168" value="Yes" style="text;html=1;strokeColor=none;fillColor=none;align=center;verticalAlign=middle;whiteSpace=wrap;rounded=0;container=0;" vertex="1" parent="MZrcCQdvljvRuOeF0CK3-1">
          <mxGeometry x="1060" y="1210" width="60" height="30" as="geometry" />
        </mxCell>
        <mxCell id="MZrcCQdvljvRuOeF0CK3-169" value="No" style="text;html=1;strokeColor=none;fillColor=none;align=center;verticalAlign=middle;whiteSpace=wrap;rounded=0;container=0;" vertex="1" parent="MZrcCQdvljvRuOeF0CK3-1">
          <mxGeometry x="961" y="1270" width="60" height="30" as="geometry" />
        </mxCell>
        <mxCell id="MZrcCQdvljvRuOeF0CK3-170" value="Yes" style="text;html=1;strokeColor=none;fillColor=none;align=center;verticalAlign=middle;whiteSpace=wrap;rounded=0;container=0;" vertex="1" parent="MZrcCQdvljvRuOeF0CK3-1">
          <mxGeometry x="800" y="1270" width="60" height="30" as="geometry" />
        </mxCell>
        <mxCell id="MZrcCQdvljvRuOeF0CK3-171" value="No" style="text;html=1;strokeColor=none;fillColor=none;align=center;verticalAlign=middle;whiteSpace=wrap;rounded=0;container=0;" vertex="1" parent="MZrcCQdvljvRuOeF0CK3-1">
          <mxGeometry x="800" y="1370" width="60" height="30" as="geometry" />
        </mxCell>
        <mxCell id="MZrcCQdvljvRuOeF0CK3-172" value="Yes" style="text;html=1;strokeColor=none;fillColor=none;align=center;verticalAlign=middle;whiteSpace=wrap;rounded=0;container=0;" vertex="1" parent="MZrcCQdvljvRuOeF0CK3-1">
          <mxGeometry x="400" y="1390" width="60" height="30" as="geometry" />
        </mxCell>
        <mxCell id="MZrcCQdvljvRuOeF0CK3-173" value="Yes" style="text;html=1;strokeColor=none;fillColor=none;align=center;verticalAlign=middle;whiteSpace=wrap;rounded=0;container=0;" vertex="1" parent="MZrcCQdvljvRuOeF0CK3-1">
          <mxGeometry x="250" y="1390" width="60" height="30" as="geometry" />
        </mxCell>
        <mxCell id="MZrcCQdvljvRuOeF0CK3-174" value="No" style="text;html=1;strokeColor=none;fillColor=none;align=center;verticalAlign=middle;whiteSpace=wrap;rounded=0;container=0;" vertex="1" parent="MZrcCQdvljvRuOeF0CK3-1">
          <mxGeometry x="470" y="1360" width="60" height="30" as="geometry" />
        </mxCell>
        <mxCell id="MZrcCQdvljvRuOeF0CK3-175" value="No" style="text;html=1;strokeColor=none;fillColor=none;align=center;verticalAlign=middle;whiteSpace=wrap;rounded=0;container=0;" vertex="1" parent="MZrcCQdvljvRuOeF0CK3-1">
          <mxGeometry x="300" y="1360" width="60" height="30" as="geometry" />
        </mxCell>
      </root>
    </mxGraphModel>
  </diagram>
</mxfile>
